<mxfile host="app.diagrams.net" modified="2024-03-26T17:57:17.114Z" agent="Mozilla/5.0 (Macintosh; Intel Mac OS X 10.15; rv:123.0) Gecko/20100101 Firefox/123.0" etag="AiegZVrmrKBpdqj0qHJj" version="24.2.0" type="github" pages="2">
  <diagram name="Chili&#39;s" id="PSdes31Rnnlw_tgahbyj">
    <mxGraphModel dx="1280" dy="675" grid="1" gridSize="10" guides="1" tooltips="1" connect="1" arrows="1" fold="1" page="1" pageScale="1" pageWidth="850" pageHeight="1100" math="0" shadow="0">
      <root>
        <mxCell id="0" />
        <mxCell id="1" parent="0" />
        <mxCell id="0PAF0eVwtVLL-mnTtXqf-24" style="edgeStyle=orthogonalEdgeStyle;rounded=0;orthogonalLoop=1;jettySize=auto;html=1;entryX=0.5;entryY=0;entryDx=0;entryDy=0;" edge="1" parent="1" source="0PAF0eVwtVLL-mnTtXqf-1" target="0PAF0eVwtVLL-mnTtXqf-2">
          <mxGeometry relative="1" as="geometry" />
        </mxCell>
        <mxCell id="0PAF0eVwtVLL-mnTtXqf-25" style="edgeStyle=orthogonalEdgeStyle;rounded=0;orthogonalLoop=1;jettySize=auto;html=1;entryX=0.5;entryY=0;entryDx=0;entryDy=0;" edge="1" parent="1" source="0PAF0eVwtVLL-mnTtXqf-1" target="0PAF0eVwtVLL-mnTtXqf-6">
          <mxGeometry relative="1" as="geometry" />
        </mxCell>
        <mxCell id="0PAF0eVwtVLL-mnTtXqf-26" value="" style="edgeStyle=orthogonalEdgeStyle;rounded=0;orthogonalLoop=1;jettySize=auto;html=1;" edge="1" parent="1" source="0PAF0eVwtVLL-mnTtXqf-1" target="0PAF0eVwtVLL-mnTtXqf-5">
          <mxGeometry relative="1" as="geometry" />
        </mxCell>
        <mxCell id="0PAF0eVwtVLL-mnTtXqf-28" style="edgeStyle=orthogonalEdgeStyle;rounded=0;orthogonalLoop=1;jettySize=auto;html=1;entryX=0.75;entryY=0;entryDx=0;entryDy=0;" edge="1" parent="1" source="0PAF0eVwtVLL-mnTtXqf-1" target="0PAF0eVwtVLL-mnTtXqf-3">
          <mxGeometry relative="1" as="geometry" />
        </mxCell>
        <mxCell id="0PAF0eVwtVLL-mnTtXqf-29" style="edgeStyle=orthogonalEdgeStyle;rounded=0;orthogonalLoop=1;jettySize=auto;html=1;entryX=0.75;entryY=0;entryDx=0;entryDy=0;" edge="1" parent="1" source="0PAF0eVwtVLL-mnTtXqf-1" target="0PAF0eVwtVLL-mnTtXqf-4">
          <mxGeometry relative="1" as="geometry" />
        </mxCell>
        <mxCell id="0PAF0eVwtVLL-mnTtXqf-1" value="&amp;nbsp;https://chilis.com/" style="rounded=0;whiteSpace=wrap;html=1;fillColor=#e51400;fontColor=#ffffff;strokeColor=#B20000;" vertex="1" parent="1">
          <mxGeometry x="277" y="125.5" width="110" height="30" as="geometry" />
        </mxCell>
        <mxCell id="0PAF0eVwtVLL-mnTtXqf-41" style="edgeStyle=orthogonalEdgeStyle;rounded=0;orthogonalLoop=1;jettySize=auto;html=1;entryX=0.5;entryY=0;entryDx=0;entryDy=0;" edge="1" parent="1" source="0PAF0eVwtVLL-mnTtXqf-2" target="0PAF0eVwtVLL-mnTtXqf-39">
          <mxGeometry relative="1" as="geometry" />
        </mxCell>
        <mxCell id="0PAF0eVwtVLL-mnTtXqf-42" value="" style="edgeStyle=orthogonalEdgeStyle;rounded=0;orthogonalLoop=1;jettySize=auto;html=1;" edge="1" parent="1" source="0PAF0eVwtVLL-mnTtXqf-2" target="0PAF0eVwtVLL-mnTtXqf-40">
          <mxGeometry relative="1" as="geometry" />
        </mxCell>
        <mxCell id="0PAF0eVwtVLL-mnTtXqf-2" value="/login" style="rounded=0;whiteSpace=wrap;html=1;fillColor=#00f900;strokeColor=#00f900;" vertex="1" parent="1">
          <mxGeometry x="480" y="200" width="60" height="20" as="geometry" />
        </mxCell>
        <mxCell id="0PAF0eVwtVLL-mnTtXqf-3" value="/merch" style="rounded=0;whiteSpace=wrap;html=1;fillColor=#aa7941;" vertex="1" parent="1">
          <mxGeometry x="398" y="200" width="55" height="20" as="geometry" />
        </mxCell>
        <mxCell id="0PAF0eVwtVLL-mnTtXqf-56" style="edgeStyle=orthogonalEdgeStyle;rounded=0;orthogonalLoop=1;jettySize=auto;html=1;entryX=0;entryY=0.75;entryDx=0;entryDy=0;" edge="1" parent="1" source="0PAF0eVwtVLL-mnTtXqf-4" target="0PAF0eVwtVLL-mnTtXqf-38">
          <mxGeometry relative="1" as="geometry">
            <Array as="points">
              <mxPoint x="310" y="210" />
              <mxPoint x="310" y="423" />
            </Array>
          </mxGeometry>
        </mxCell>
        <mxCell id="0PAF0eVwtVLL-mnTtXqf-4" value="/gift-cards" style="rounded=0;whiteSpace=wrap;html=1;fillColor=#fefb00;" vertex="1" parent="1">
          <mxGeometry x="320" y="200" width="60" height="20" as="geometry" />
        </mxCell>
        <mxCell id="0PAF0eVwtVLL-mnTtXqf-5" value="/locations" style="rounded=0;whiteSpace=wrap;html=1;fillColor=#33FFFF;" vertex="1" parent="1">
          <mxGeometry x="240" y="200" width="60" height="20" as="geometry" />
        </mxCell>
        <mxCell id="0PAF0eVwtVLL-mnTtXqf-6" value="/rewards" style="rounded=0;whiteSpace=wrap;html=1;fillColor=#932092;strokeColor=#6c8ebf;" vertex="1" parent="1">
          <mxGeometry x="170" y="200" width="50" height="20" as="geometry" />
        </mxCell>
        <mxCell id="0PAF0eVwtVLL-mnTtXqf-43" style="edgeStyle=orthogonalEdgeStyle;rounded=0;orthogonalLoop=1;jettySize=auto;html=1;" edge="1" parent="1" source="0PAF0eVwtVLL-mnTtXqf-7">
          <mxGeometry relative="1" as="geometry">
            <mxPoint x="20" y="610" as="targetPoint" />
          </mxGeometry>
        </mxCell>
        <mxCell id="0PAF0eVwtVLL-mnTtXqf-7" value="&lt;span style=&quot;background-color: rgb(255, 146, 0);&quot;&gt;/menu&lt;span style=&quot;white-space: pre;&quot;&gt;&#x9;&lt;/span&gt;&lt;/span&gt;" style="rounded=0;whiteSpace=wrap;html=1;fillColor=#f0a30a;fontColor=#000000;strokeColor=#BD7000;" vertex="1" parent="1">
          <mxGeometry x="50" y="200" width="60" height="20" as="geometry" />
        </mxCell>
        <mxCell id="0PAF0eVwtVLL-mnTtXqf-8" value="/featured-items" style="rounded=0;whiteSpace=wrap;html=1;fillColor=#ff9200;" vertex="1" parent="1">
          <mxGeometry x="50" y="240" width="90" height="20" as="geometry" />
        </mxCell>
        <mxCell id="0PAF0eVwtVLL-mnTtXqf-9" value="" style="html=1;verticalLabelPosition=bottom;align=center;labelBackgroundColor=#ffffff;verticalAlign=top;strokeWidth=2;strokeColor=#0080F0;shadow=0;dashed=0;shape=mxgraph.ios7.icons.home;" vertex="1" parent="1">
          <mxGeometry x="325" y="100" width="24" height="25.5" as="geometry" />
        </mxCell>
        <mxCell id="0PAF0eVwtVLL-mnTtXqf-12" value="/fajitas" style="rounded=0;whiteSpace=wrap;html=1;fillColor=#FF9933;" vertex="1" parent="1">
          <mxGeometry x="50" y="340" width="90" height="20" as="geometry" />
        </mxCell>
        <mxCell id="0PAF0eVwtVLL-mnTtXqf-13" value="/appetizers" style="rounded=0;whiteSpace=wrap;html=1;fillColor=#FF9933;" vertex="1" parent="1">
          <mxGeometry x="50" y="280" width="90" height="20" as="geometry" />
        </mxCell>
        <mxCell id="0PAF0eVwtVLL-mnTtXqf-14" value="/wings" style="rounded=0;whiteSpace=wrap;html=1;fillColor=#FF9933;" vertex="1" parent="1">
          <mxGeometry x="50" y="310" width="90" height="20" as="geometry" />
        </mxCell>
        <mxCell id="0PAF0eVwtVLL-mnTtXqf-16" value="/smokehouse-combos" style="rounded=0;whiteSpace=wrap;html=1;fillColor=#FF9933;" vertex="1" parent="1">
          <mxGeometry x="50" y="490" width="100" height="30" as="geometry" />
        </mxCell>
        <mxCell id="0PAF0eVwtVLL-mnTtXqf-17" value="/big-mouth-burgers" style="rounded=0;whiteSpace=wrap;html=1;fillColor=#FF9933;" vertex="1" parent="1">
          <mxGeometry x="50" y="370" width="100" height="30" as="geometry" />
        </mxCell>
        <mxCell id="0PAF0eVwtVLL-mnTtXqf-18" value="/steak-and-ribs" style="rounded=0;whiteSpace=wrap;html=1;fillColor=#FF9933;" vertex="1" parent="1">
          <mxGeometry x="50" y="460" width="90" height="20" as="geometry" />
        </mxCell>
        <mxCell id="0PAF0eVwtVLL-mnTtXqf-19" value="/chicken-crisper-combos" style="rounded=0;whiteSpace=wrap;html=1;fillColor=#FF9933;" vertex="1" parent="1">
          <mxGeometry x="50" y="410" width="100" height="30" as="geometry" />
        </mxCell>
        <mxCell id="0PAF0eVwtVLL-mnTtXqf-20" value="/chicken-and-seafood" style="rounded=0;whiteSpace=wrap;html=1;fillColor=#FF9933;" vertex="1" parent="1">
          <mxGeometry x="50" y="530" width="100" height="30" as="geometry" />
        </mxCell>
        <mxCell id="0PAF0eVwtVLL-mnTtXqf-21" value="/smokehouse-combos" style="rounded=0;whiteSpace=wrap;html=1;fillColor=#FF9933;" vertex="1" parent="1">
          <mxGeometry x="50" y="580" width="100" height="30" as="geometry" />
        </mxCell>
        <mxCell id="0PAF0eVwtVLL-mnTtXqf-23" style="edgeStyle=orthogonalEdgeStyle;rounded=0;orthogonalLoop=1;jettySize=auto;html=1;entryX=0.633;entryY=0.05;entryDx=0;entryDy=0;entryPerimeter=0;" edge="1" parent="1" source="0PAF0eVwtVLL-mnTtXqf-1" target="0PAF0eVwtVLL-mnTtXqf-7">
          <mxGeometry relative="1" as="geometry" />
        </mxCell>
        <mxCell id="0PAF0eVwtVLL-mnTtXqf-31" value="/register" style="whiteSpace=wrap;html=1;fillColor=#932092;" vertex="1" parent="1">
          <mxGeometry x="177" y="248" width="63" height="20" as="geometry" />
        </mxCell>
        <mxCell id="0PAF0eVwtVLL-mnTtXqf-32" value="/login" style="whiteSpace=wrap;html=1;fillColor=#932092;" vertex="1" parent="1">
          <mxGeometry x="177" y="280" width="63" height="20" as="geometry" />
        </mxCell>
        <mxCell id="0PAF0eVwtVLL-mnTtXqf-33" style="edgeStyle=orthogonalEdgeStyle;rounded=0;orthogonalLoop=1;jettySize=auto;html=1;exitX=0.5;exitY=1;exitDx=0;exitDy=0;" edge="1" parent="1" source="0PAF0eVwtVLL-mnTtXqf-32" target="0PAF0eVwtVLL-mnTtXqf-32">
          <mxGeometry relative="1" as="geometry" />
        </mxCell>
        <mxCell id="0PAF0eVwtVLL-mnTtXqf-35" value="/purchase physical-cards" style="rounded=0;whiteSpace=wrap;html=1;fillColor=#fefb00;" vertex="1" parent="1">
          <mxGeometry x="320" y="250" width="70" height="40" as="geometry" />
        </mxCell>
        <mxCell id="0PAF0eVwtVLL-mnTtXqf-36" value="/purchase-e-gift-cards" style="rounded=0;whiteSpace=wrap;html=1;fillColor=#fefb00;" vertex="1" parent="1">
          <mxGeometry x="320" y="300" width="80" height="30" as="geometry" />
        </mxCell>
        <mxCell id="0PAF0eVwtVLL-mnTtXqf-37" value="/bulk-gift-cards" style="rounded=0;whiteSpace=wrap;html=1;fillColor=#fefb00;" vertex="1" parent="1">
          <mxGeometry x="325" y="350" width="70" height="30" as="geometry" />
        </mxCell>
        <mxCell id="0PAF0eVwtVLL-mnTtXqf-38" value="/check-balance" style="rounded=0;whiteSpace=wrap;html=1;fillColor=#fefb00;" vertex="1" parent="1">
          <mxGeometry x="320" y="400" width="70" height="30" as="geometry" />
        </mxCell>
        <mxCell id="0PAF0eVwtVLL-mnTtXqf-39" value="/register" style="whiteSpace=wrap;html=1;strokeColor=#00f900;fillColor=#00f900;" vertex="1" parent="1">
          <mxGeometry x="560" y="250" width="63" height="20" as="geometry" />
        </mxCell>
        <mxCell id="0PAF0eVwtVLL-mnTtXqf-40" value="/login" style="whiteSpace=wrap;html=1;strokeColor=#00f900;fillColor=#00f900;" vertex="1" parent="1">
          <mxGeometry x="478.5" y="248" width="63" height="20" as="geometry" />
        </mxCell>
        <mxCell id="0PAF0eVwtVLL-mnTtXqf-46" value="" style="endArrow=classic;html=1;rounded=0;" edge="1" parent="1">
          <mxGeometry width="50" height="50" relative="1" as="geometry">
            <mxPoint x="20" y="250" as="sourcePoint" />
            <mxPoint x="50" y="250" as="targetPoint" />
          </mxGeometry>
        </mxCell>
        <mxCell id="0PAF0eVwtVLL-mnTtXqf-47" value="" style="endArrow=classic;html=1;rounded=0;" edge="1" parent="1">
          <mxGeometry width="50" height="50" relative="1" as="geometry">
            <mxPoint x="20" y="289" as="sourcePoint" />
            <mxPoint x="50" y="289" as="targetPoint" />
          </mxGeometry>
        </mxCell>
        <mxCell id="0PAF0eVwtVLL-mnTtXqf-48" value="" style="endArrow=classic;html=1;rounded=0;" edge="1" parent="1">
          <mxGeometry width="50" height="50" relative="1" as="geometry">
            <mxPoint x="20" y="349.5" as="sourcePoint" />
            <mxPoint x="50" y="349.5" as="targetPoint" />
          </mxGeometry>
        </mxCell>
        <mxCell id="0PAF0eVwtVLL-mnTtXqf-50" value="" style="endArrow=classic;html=1;rounded=0;" edge="1" parent="1">
          <mxGeometry width="50" height="50" relative="1" as="geometry">
            <mxPoint x="20" y="380" as="sourcePoint" />
            <mxPoint x="50" y="380" as="targetPoint" />
          </mxGeometry>
        </mxCell>
        <mxCell id="0PAF0eVwtVLL-mnTtXqf-51" value="" style="endArrow=classic;html=1;rounded=0;" edge="1" parent="1">
          <mxGeometry width="50" height="50" relative="1" as="geometry">
            <mxPoint x="20" y="420" as="sourcePoint" />
            <mxPoint x="50" y="420" as="targetPoint" />
          </mxGeometry>
        </mxCell>
        <mxCell id="0PAF0eVwtVLL-mnTtXqf-52" value="" style="endArrow=classic;html=1;rounded=0;" edge="1" parent="1">
          <mxGeometry width="50" height="50" relative="1" as="geometry">
            <mxPoint x="20" y="469.5" as="sourcePoint" />
            <mxPoint x="50" y="469.5" as="targetPoint" />
          </mxGeometry>
        </mxCell>
        <mxCell id="0PAF0eVwtVLL-mnTtXqf-53" value="" style="endArrow=classic;html=1;rounded=0;" edge="1" parent="1">
          <mxGeometry width="50" height="50" relative="1" as="geometry">
            <mxPoint x="20" y="540" as="sourcePoint" />
            <mxPoint x="50" y="540" as="targetPoint" />
          </mxGeometry>
        </mxCell>
        <mxCell id="0PAF0eVwtVLL-mnTtXqf-54" value="" style="endArrow=classic;html=1;rounded=0;" edge="1" parent="1">
          <mxGeometry width="50" height="50" relative="1" as="geometry">
            <mxPoint x="20" y="504.5" as="sourcePoint" />
            <mxPoint x="50" y="504.5" as="targetPoint" />
          </mxGeometry>
        </mxCell>
        <mxCell id="0PAF0eVwtVLL-mnTtXqf-55" value="" style="endArrow=classic;html=1;rounded=0;" edge="1" parent="1">
          <mxGeometry width="50" height="50" relative="1" as="geometry">
            <mxPoint x="20" y="605" as="sourcePoint" />
            <mxPoint x="50" y="605" as="targetPoint" />
          </mxGeometry>
        </mxCell>
        <mxCell id="0PAF0eVwtVLL-mnTtXqf-57" value="" style="endArrow=classic;html=1;rounded=0;" edge="1" parent="1">
          <mxGeometry width="50" height="50" relative="1" as="geometry">
            <mxPoint x="310" y="267" as="sourcePoint" />
            <mxPoint x="325" y="267" as="targetPoint" />
          </mxGeometry>
        </mxCell>
        <mxCell id="0PAF0eVwtVLL-mnTtXqf-58" value="" style="endArrow=classic;html=1;rounded=0;" edge="1" parent="1">
          <mxGeometry width="50" height="50" relative="1" as="geometry">
            <mxPoint x="308" y="320" as="sourcePoint" />
            <mxPoint x="323" y="320" as="targetPoint" />
          </mxGeometry>
        </mxCell>
        <mxCell id="0PAF0eVwtVLL-mnTtXqf-59" value="" style="endArrow=classic;html=1;rounded=0;" edge="1" parent="1">
          <mxGeometry width="50" height="50" relative="1" as="geometry">
            <mxPoint x="310" y="360" as="sourcePoint" />
            <mxPoint x="325" y="360" as="targetPoint" />
          </mxGeometry>
        </mxCell>
      </root>
    </mxGraphModel>
  </diagram>
  <diagram name="McDonald&#39;s" id="AGSGahIXU4RQnxEWUdl-">
    <mxGraphModel dx="1280" dy="675" grid="1" gridSize="10" guides="1" tooltips="1" connect="1" arrows="1" fold="1" page="1" pageScale="1" pageWidth="850" pageHeight="1100" math="0" shadow="0">
      <root>
        <mxCell id="7CCz3uAto5SKICLuDHaF-0" />
        <mxCell id="7CCz3uAto5SKICLuDHaF-1" parent="7CCz3uAto5SKICLuDHaF-0" />
        <mxCell id="7CCz3uAto5SKICLuDHaF-2" style="edgeStyle=orthogonalEdgeStyle;rounded=0;orthogonalLoop=1;jettySize=auto;html=1;entryX=0.5;entryY=0;entryDx=0;entryDy=0;" edge="1" parent="7CCz3uAto5SKICLuDHaF-1" source="7CCz3uAto5SKICLuDHaF-7" target="7CCz3uAto5SKICLuDHaF-10">
          <mxGeometry relative="1" as="geometry" />
        </mxCell>
        <mxCell id="7CCz3uAto5SKICLuDHaF-3" style="edgeStyle=orthogonalEdgeStyle;rounded=0;orthogonalLoop=1;jettySize=auto;html=1;entryX=0.5;entryY=0;entryDx=0;entryDy=0;" edge="1" parent="7CCz3uAto5SKICLuDHaF-1" source="7CCz3uAto5SKICLuDHaF-7" target="7CCz3uAto5SKICLuDHaF-15">
          <mxGeometry relative="1" as="geometry" />
        </mxCell>
        <mxCell id="7CCz3uAto5SKICLuDHaF-4" value="" style="edgeStyle=orthogonalEdgeStyle;rounded=0;orthogonalLoop=1;jettySize=auto;html=1;" edge="1" parent="7CCz3uAto5SKICLuDHaF-1" source="7CCz3uAto5SKICLuDHaF-7" target="7CCz3uAto5SKICLuDHaF-14">
          <mxGeometry relative="1" as="geometry" />
        </mxCell>
        <mxCell id="7CCz3uAto5SKICLuDHaF-5" style="edgeStyle=orthogonalEdgeStyle;rounded=0;orthogonalLoop=1;jettySize=auto;html=1;entryX=0.75;entryY=0;entryDx=0;entryDy=0;" edge="1" parent="7CCz3uAto5SKICLuDHaF-1" source="7CCz3uAto5SKICLuDHaF-7" target="7CCz3uAto5SKICLuDHaF-11">
          <mxGeometry relative="1" as="geometry" />
        </mxCell>
        <mxCell id="7CCz3uAto5SKICLuDHaF-6" style="edgeStyle=orthogonalEdgeStyle;rounded=0;orthogonalLoop=1;jettySize=auto;html=1;entryX=0.75;entryY=0;entryDx=0;entryDy=0;" edge="1" parent="7CCz3uAto5SKICLuDHaF-1" source="7CCz3uAto5SKICLuDHaF-7" target="7CCz3uAto5SKICLuDHaF-13">
          <mxGeometry relative="1" as="geometry" />
        </mxCell>
        <mxCell id="7CCz3uAto5SKICLuDHaF-7" value="&amp;nbsp;https://chilis.com/" style="rounded=0;whiteSpace=wrap;html=1;fillColor=#e51400;fontColor=#ffffff;strokeColor=#B20000;" vertex="1" parent="7CCz3uAto5SKICLuDHaF-1">
          <mxGeometry x="277" y="125.5" width="110" height="30" as="geometry" />
        </mxCell>
        <mxCell id="7CCz3uAto5SKICLuDHaF-8" style="edgeStyle=orthogonalEdgeStyle;rounded=0;orthogonalLoop=1;jettySize=auto;html=1;entryX=0.5;entryY=0;entryDx=0;entryDy=0;" edge="1" parent="7CCz3uAto5SKICLuDHaF-1" source="7CCz3uAto5SKICLuDHaF-10" target="7CCz3uAto5SKICLuDHaF-37">
          <mxGeometry relative="1" as="geometry" />
        </mxCell>
        <mxCell id="7CCz3uAto5SKICLuDHaF-9" value="" style="edgeStyle=orthogonalEdgeStyle;rounded=0;orthogonalLoop=1;jettySize=auto;html=1;" edge="1" parent="7CCz3uAto5SKICLuDHaF-1" source="7CCz3uAto5SKICLuDHaF-10" target="7CCz3uAto5SKICLuDHaF-38">
          <mxGeometry relative="1" as="geometry" />
        </mxCell>
        <mxCell id="7CCz3uAto5SKICLuDHaF-10" value="/login" style="rounded=0;whiteSpace=wrap;html=1;fillColor=#00f900;strokeColor=#00f900;" vertex="1" parent="7CCz3uAto5SKICLuDHaF-1">
          <mxGeometry x="480" y="200" width="60" height="20" as="geometry" />
        </mxCell>
        <mxCell id="7CCz3uAto5SKICLuDHaF-11" value="/merch" style="rounded=0;whiteSpace=wrap;html=1;fillColor=#aa7941;" vertex="1" parent="7CCz3uAto5SKICLuDHaF-1">
          <mxGeometry x="398" y="200" width="55" height="20" as="geometry" />
        </mxCell>
        <mxCell id="7CCz3uAto5SKICLuDHaF-12" style="edgeStyle=orthogonalEdgeStyle;rounded=0;orthogonalLoop=1;jettySize=auto;html=1;entryX=0;entryY=0.75;entryDx=0;entryDy=0;" edge="1" parent="7CCz3uAto5SKICLuDHaF-1" source="7CCz3uAto5SKICLuDHaF-13" target="7CCz3uAto5SKICLuDHaF-36">
          <mxGeometry relative="1" as="geometry">
            <Array as="points">
              <mxPoint x="310" y="210" />
              <mxPoint x="310" y="423" />
            </Array>
          </mxGeometry>
        </mxCell>
        <mxCell id="7CCz3uAto5SKICLuDHaF-13" value="/gift-cards" style="rounded=0;whiteSpace=wrap;html=1;fillColor=#fefb00;" vertex="1" parent="7CCz3uAto5SKICLuDHaF-1">
          <mxGeometry x="320" y="200" width="60" height="20" as="geometry" />
        </mxCell>
        <mxCell id="7CCz3uAto5SKICLuDHaF-14" value="/locations" style="rounded=0;whiteSpace=wrap;html=1;fillColor=#33FFFF;" vertex="1" parent="7CCz3uAto5SKICLuDHaF-1">
          <mxGeometry x="240" y="200" width="60" height="20" as="geometry" />
        </mxCell>
        <mxCell id="7CCz3uAto5SKICLuDHaF-15" value="/rewards" style="rounded=0;whiteSpace=wrap;html=1;fillColor=#932092;strokeColor=#6c8ebf;" vertex="1" parent="7CCz3uAto5SKICLuDHaF-1">
          <mxGeometry x="170" y="200" width="50" height="20" as="geometry" />
        </mxCell>
        <mxCell id="7CCz3uAto5SKICLuDHaF-16" style="edgeStyle=orthogonalEdgeStyle;rounded=0;orthogonalLoop=1;jettySize=auto;html=1;" edge="1" parent="7CCz3uAto5SKICLuDHaF-1" source="7CCz3uAto5SKICLuDHaF-17">
          <mxGeometry relative="1" as="geometry">
            <mxPoint x="20" y="610" as="targetPoint" />
          </mxGeometry>
        </mxCell>
        <mxCell id="7CCz3uAto5SKICLuDHaF-17" value="&lt;span style=&quot;background-color: rgb(255, 146, 0);&quot;&gt;/menu&lt;span style=&quot;white-space: pre;&quot;&gt;&#x9;&lt;/span&gt;&lt;/span&gt;" style="rounded=0;whiteSpace=wrap;html=1;fillColor=#f0a30a;fontColor=#000000;strokeColor=#BD7000;" vertex="1" parent="7CCz3uAto5SKICLuDHaF-1">
          <mxGeometry x="50" y="200" width="60" height="20" as="geometry" />
        </mxCell>
        <mxCell id="7CCz3uAto5SKICLuDHaF-18" value="/featured-items" style="rounded=0;whiteSpace=wrap;html=1;fillColor=#ff9200;" vertex="1" parent="7CCz3uAto5SKICLuDHaF-1">
          <mxGeometry x="50" y="240" width="90" height="20" as="geometry" />
        </mxCell>
        <mxCell id="7CCz3uAto5SKICLuDHaF-19" value="" style="html=1;verticalLabelPosition=bottom;align=center;labelBackgroundColor=#ffffff;verticalAlign=top;strokeWidth=2;strokeColor=#0080F0;shadow=0;dashed=0;shape=mxgraph.ios7.icons.home;" vertex="1" parent="7CCz3uAto5SKICLuDHaF-1">
          <mxGeometry x="363" y="100" width="24" height="25.5" as="geometry" />
        </mxCell>
        <mxCell id="7CCz3uAto5SKICLuDHaF-20" value="/fajitas" style="rounded=0;whiteSpace=wrap;html=1;fillColor=#FF9933;" vertex="1" parent="7CCz3uAto5SKICLuDHaF-1">
          <mxGeometry x="50" y="340" width="90" height="20" as="geometry" />
        </mxCell>
        <mxCell id="7CCz3uAto5SKICLuDHaF-21" value="/appetizers" style="rounded=0;whiteSpace=wrap;html=1;fillColor=#FF9933;" vertex="1" parent="7CCz3uAto5SKICLuDHaF-1">
          <mxGeometry x="50" y="280" width="90" height="20" as="geometry" />
        </mxCell>
        <mxCell id="7CCz3uAto5SKICLuDHaF-22" value="/wings" style="rounded=0;whiteSpace=wrap;html=1;fillColor=#FF9933;" vertex="1" parent="7CCz3uAto5SKICLuDHaF-1">
          <mxGeometry x="50" y="310" width="90" height="20" as="geometry" />
        </mxCell>
        <mxCell id="7CCz3uAto5SKICLuDHaF-23" value="/smokehouse-combos" style="rounded=0;whiteSpace=wrap;html=1;fillColor=#FF9933;" vertex="1" parent="7CCz3uAto5SKICLuDHaF-1">
          <mxGeometry x="50" y="490" width="100" height="30" as="geometry" />
        </mxCell>
        <mxCell id="7CCz3uAto5SKICLuDHaF-24" value="/big-mouth-burgers" style="rounded=0;whiteSpace=wrap;html=1;fillColor=#FF9933;" vertex="1" parent="7CCz3uAto5SKICLuDHaF-1">
          <mxGeometry x="50" y="370" width="100" height="30" as="geometry" />
        </mxCell>
        <mxCell id="7CCz3uAto5SKICLuDHaF-25" value="/steak-and-ribs" style="rounded=0;whiteSpace=wrap;html=1;fillColor=#FF9933;" vertex="1" parent="7CCz3uAto5SKICLuDHaF-1">
          <mxGeometry x="50" y="460" width="90" height="20" as="geometry" />
        </mxCell>
        <mxCell id="7CCz3uAto5SKICLuDHaF-26" value="/chicken-crisper-combos" style="rounded=0;whiteSpace=wrap;html=1;fillColor=#FF9933;" vertex="1" parent="7CCz3uAto5SKICLuDHaF-1">
          <mxGeometry x="50" y="410" width="100" height="30" as="geometry" />
        </mxCell>
        <mxCell id="7CCz3uAto5SKICLuDHaF-27" value="/chicken-and-seafood" style="rounded=0;whiteSpace=wrap;html=1;fillColor=#FF9933;" vertex="1" parent="7CCz3uAto5SKICLuDHaF-1">
          <mxGeometry x="50" y="530" width="100" height="30" as="geometry" />
        </mxCell>
        <mxCell id="7CCz3uAto5SKICLuDHaF-28" value="/smokehouse-combos" style="rounded=0;whiteSpace=wrap;html=1;fillColor=#FF9933;" vertex="1" parent="7CCz3uAto5SKICLuDHaF-1">
          <mxGeometry x="50" y="580" width="100" height="30" as="geometry" />
        </mxCell>
        <mxCell id="7CCz3uAto5SKICLuDHaF-29" style="edgeStyle=orthogonalEdgeStyle;rounded=0;orthogonalLoop=1;jettySize=auto;html=1;entryX=0.633;entryY=0.05;entryDx=0;entryDy=0;entryPerimeter=0;" edge="1" parent="7CCz3uAto5SKICLuDHaF-1" source="7CCz3uAto5SKICLuDHaF-7" target="7CCz3uAto5SKICLuDHaF-17">
          <mxGeometry relative="1" as="geometry" />
        </mxCell>
        <mxCell id="7CCz3uAto5SKICLuDHaF-30" value="/register" style="whiteSpace=wrap;html=1;fillColor=#932092;" vertex="1" parent="7CCz3uAto5SKICLuDHaF-1">
          <mxGeometry x="177" y="248" width="63" height="20" as="geometry" />
        </mxCell>
        <mxCell id="7CCz3uAto5SKICLuDHaF-31" value="/login" style="whiteSpace=wrap;html=1;fillColor=#932092;" vertex="1" parent="7CCz3uAto5SKICLuDHaF-1">
          <mxGeometry x="177" y="280" width="63" height="20" as="geometry" />
        </mxCell>
        <mxCell id="7CCz3uAto5SKICLuDHaF-32" style="edgeStyle=orthogonalEdgeStyle;rounded=0;orthogonalLoop=1;jettySize=auto;html=1;exitX=0.5;exitY=1;exitDx=0;exitDy=0;" edge="1" parent="7CCz3uAto5SKICLuDHaF-1" source="7CCz3uAto5SKICLuDHaF-31" target="7CCz3uAto5SKICLuDHaF-31">
          <mxGeometry relative="1" as="geometry" />
        </mxCell>
        <mxCell id="7CCz3uAto5SKICLuDHaF-33" value="/purchase physical-cards" style="rounded=0;whiteSpace=wrap;html=1;fillColor=#fefb00;" vertex="1" parent="7CCz3uAto5SKICLuDHaF-1">
          <mxGeometry x="320" y="250" width="70" height="40" as="geometry" />
        </mxCell>
        <mxCell id="7CCz3uAto5SKICLuDHaF-34" value="/purchase-e-gift-cards" style="rounded=0;whiteSpace=wrap;html=1;fillColor=#fefb00;" vertex="1" parent="7CCz3uAto5SKICLuDHaF-1">
          <mxGeometry x="320" y="300" width="80" height="30" as="geometry" />
        </mxCell>
        <mxCell id="7CCz3uAto5SKICLuDHaF-35" value="/bulk-gift-cards" style="rounded=0;whiteSpace=wrap;html=1;fillColor=#fefb00;" vertex="1" parent="7CCz3uAto5SKICLuDHaF-1">
          <mxGeometry x="325" y="350" width="70" height="30" as="geometry" />
        </mxCell>
        <mxCell id="7CCz3uAto5SKICLuDHaF-36" value="/check-balance" style="rounded=0;whiteSpace=wrap;html=1;fillColor=#fefb00;" vertex="1" parent="7CCz3uAto5SKICLuDHaF-1">
          <mxGeometry x="320" y="400" width="70" height="30" as="geometry" />
        </mxCell>
        <mxCell id="7CCz3uAto5SKICLuDHaF-37" value="/register" style="whiteSpace=wrap;html=1;strokeColor=#00f900;fillColor=#00f900;" vertex="1" parent="7CCz3uAto5SKICLuDHaF-1">
          <mxGeometry x="560" y="250" width="63" height="20" as="geometry" />
        </mxCell>
        <mxCell id="7CCz3uAto5SKICLuDHaF-38" value="/login" style="whiteSpace=wrap;html=1;strokeColor=#00f900;fillColor=#00f900;" vertex="1" parent="7CCz3uAto5SKICLuDHaF-1">
          <mxGeometry x="478.5" y="248" width="63" height="20" as="geometry" />
        </mxCell>
        <mxCell id="7CCz3uAto5SKICLuDHaF-40" value="" style="endArrow=classic;html=1;rounded=0;" edge="1" parent="7CCz3uAto5SKICLuDHaF-1">
          <mxGeometry width="50" height="50" relative="1" as="geometry">
            <mxPoint x="20" y="250" as="sourcePoint" />
            <mxPoint x="50" y="250" as="targetPoint" />
          </mxGeometry>
        </mxCell>
        <mxCell id="7CCz3uAto5SKICLuDHaF-41" value="" style="endArrow=classic;html=1;rounded=0;" edge="1" parent="7CCz3uAto5SKICLuDHaF-1">
          <mxGeometry width="50" height="50" relative="1" as="geometry">
            <mxPoint x="20" y="289" as="sourcePoint" />
            <mxPoint x="50" y="289" as="targetPoint" />
          </mxGeometry>
        </mxCell>
        <mxCell id="7CCz3uAto5SKICLuDHaF-42" value="" style="endArrow=classic;html=1;rounded=0;" edge="1" parent="7CCz3uAto5SKICLuDHaF-1">
          <mxGeometry width="50" height="50" relative="1" as="geometry">
            <mxPoint x="20" y="349.5" as="sourcePoint" />
            <mxPoint x="50" y="349.5" as="targetPoint" />
          </mxGeometry>
        </mxCell>
        <mxCell id="7CCz3uAto5SKICLuDHaF-43" value="" style="endArrow=classic;html=1;rounded=0;" edge="1" parent="7CCz3uAto5SKICLuDHaF-1">
          <mxGeometry width="50" height="50" relative="1" as="geometry">
            <mxPoint x="20" y="380" as="sourcePoint" />
            <mxPoint x="50" y="380" as="targetPoint" />
          </mxGeometry>
        </mxCell>
        <mxCell id="7CCz3uAto5SKICLuDHaF-44" value="" style="endArrow=classic;html=1;rounded=0;" edge="1" parent="7CCz3uAto5SKICLuDHaF-1">
          <mxGeometry width="50" height="50" relative="1" as="geometry">
            <mxPoint x="20" y="420" as="sourcePoint" />
            <mxPoint x="50" y="420" as="targetPoint" />
          </mxGeometry>
        </mxCell>
        <mxCell id="7CCz3uAto5SKICLuDHaF-45" value="" style="endArrow=classic;html=1;rounded=0;" edge="1" parent="7CCz3uAto5SKICLuDHaF-1">
          <mxGeometry width="50" height="50" relative="1" as="geometry">
            <mxPoint x="20" y="469.5" as="sourcePoint" />
            <mxPoint x="50" y="469.5" as="targetPoint" />
          </mxGeometry>
        </mxCell>
        <mxCell id="7CCz3uAto5SKICLuDHaF-46" value="" style="endArrow=classic;html=1;rounded=0;" edge="1" parent="7CCz3uAto5SKICLuDHaF-1">
          <mxGeometry width="50" height="50" relative="1" as="geometry">
            <mxPoint x="20" y="540" as="sourcePoint" />
            <mxPoint x="50" y="540" as="targetPoint" />
          </mxGeometry>
        </mxCell>
        <mxCell id="7CCz3uAto5SKICLuDHaF-47" value="" style="endArrow=classic;html=1;rounded=0;" edge="1" parent="7CCz3uAto5SKICLuDHaF-1">
          <mxGeometry width="50" height="50" relative="1" as="geometry">
            <mxPoint x="20" y="504.5" as="sourcePoint" />
            <mxPoint x="50" y="504.5" as="targetPoint" />
          </mxGeometry>
        </mxCell>
        <mxCell id="7CCz3uAto5SKICLuDHaF-48" value="" style="endArrow=classic;html=1;rounded=0;" edge="1" parent="7CCz3uAto5SKICLuDHaF-1">
          <mxGeometry width="50" height="50" relative="1" as="geometry">
            <mxPoint x="20" y="605" as="sourcePoint" />
            <mxPoint x="50" y="605" as="targetPoint" />
          </mxGeometry>
        </mxCell>
        <mxCell id="7CCz3uAto5SKICLuDHaF-49" value="" style="endArrow=classic;html=1;rounded=0;" edge="1" parent="7CCz3uAto5SKICLuDHaF-1">
          <mxGeometry width="50" height="50" relative="1" as="geometry">
            <mxPoint x="310" y="267" as="sourcePoint" />
            <mxPoint x="325" y="267" as="targetPoint" />
          </mxGeometry>
        </mxCell>
        <mxCell id="7CCz3uAto5SKICLuDHaF-50" value="" style="endArrow=classic;html=1;rounded=0;" edge="1" parent="7CCz3uAto5SKICLuDHaF-1">
          <mxGeometry width="50" height="50" relative="1" as="geometry">
            <mxPoint x="308" y="320" as="sourcePoint" />
            <mxPoint x="323" y="320" as="targetPoint" />
          </mxGeometry>
        </mxCell>
        <mxCell id="7CCz3uAto5SKICLuDHaF-51" value="" style="endArrow=classic;html=1;rounded=0;" edge="1" parent="7CCz3uAto5SKICLuDHaF-1">
          <mxGeometry width="50" height="50" relative="1" as="geometry">
            <mxPoint x="310" y="360" as="sourcePoint" />
            <mxPoint x="325" y="360" as="targetPoint" />
          </mxGeometry>
        </mxCell>
        <mxCell id="16MFR6T2yyvVh_wBc3wW-0" value="" style="shape=image;verticalLabelPosition=bottom;labelBackgroundColor=default;verticalAlign=top;aspect=fixed;imageAspect=0;image=data:image/png,iVBORw0KGgoAAAANSUhEUgAAAHEAAAA7CAYAAABMvWXaAAABW2lDQ1BJQ0MgUHJvZmlsZQAAKJFjYGBiSSwoyGFhYGDIzSspCnJ3UoiIjFJgf8HAzCDFwMWgyMCfmFxc4BgQ4ANUwgCjUcG3awyMIPqyLsisuBV2FulthwImHwm713Zy805M9SiAKyW1OBlI/wFireSCohIGBkYNIDugvKQAxK4AskWKgI4CsntA7HQIewGInQRhbwGrCQlyBrJPANkCyRmJKUD2DSBbJwlJPB2JnZtTmgx1A8j1PKl5ocFAmg+IZRiCGRwZfIFkKIMfgzswbLCrNQGrdWbIZyhgqGQoYshkSGfIYChhUADqLgDCHIZUINuTIY8hmUGPQQfINmIwAGITUBijhx1CLEWTgcEI6CcmZoRYZjkDw65woDdlEWKapgwMQl8ZGPbyFiQWJcJDlPEbS3GasRGELckDDOLm//9fAN3KW83A8O/t///fP/z//3sKAwO7LQNDTzcACwNgjGdbkw0AAAB6ZVhJZk1NACoAAAAIAAQBBgADAAAAAQACAAABEgADAAAAAQABAAABKAADAAAAAQACAACHaQAEAAAAAQAAAD4AAAAAAAOShgAHAAAAEgAAAGigAgAEAAAAAQAAAHGgAwAEAAAAAQAAADsAAAAAQVNDSUkAAABTY3JlZW5zaG90HdZI2wAAAu5pVFh0WE1MOmNvbS5hZG9iZS54bXAAAAAAADx4OnhtcG1ldGEgeG1sbnM6eD0iYWRvYmU6bnM6bWV0YS8iIHg6eG1wdGs9IlhNUCBDb3JlIDYuMC4wIj4KICAgPHJkZjpSREYgeG1sbnM6cmRmPSJodHRwOi8vd3d3LnczLm9yZy8xOTk5LzAyLzIyLXJkZi1zeW50YXgtbnMjIj4KICAgICAgPHJkZjpEZXNjcmlwdGlvbiByZGY6YWJvdXQ9IiIKICAgICAgICAgICAgeG1sbnM6dGlmZj0iaHR0cDovL25zLmFkb2JlLmNvbS90aWZmLzEuMC8iCiAgICAgICAgICAgIHhtbG5zOmV4aWY9Imh0dHA6Ly9ucy5hZG9iZS5jb20vZXhpZi8xLjAvIj4KICAgICAgICAgPHRpZmY6Q29tcHJlc3Npb24+MTwvdGlmZjpDb21wcmVzc2lvbj4KICAgICAgICAgPHRpZmY6UmVzb2x1dGlvblVuaXQ+MjwvdGlmZjpSZXNvbHV0aW9uVW5pdD4KICAgICAgICAgPHRpZmY6UGhvdG9tZXRyaWNJbnRlcnByZXRhdGlvbj4yPC90aWZmOlBob3RvbWV0cmljSW50ZXJwcmV0YXRpb24+CiAgICAgICAgIDx0aWZmOk9yaWVudGF0aW9uPjE8L3RpZmY6T3JpZW50YXRpb24+CiAgICAgICAgIDxleGlmOlBpeGVsWERpbWVuc2lvbj4xMTM8L2V4aWY6UGl4ZWxYRGltZW5zaW9uPgogICAgICAgICA8ZXhpZjpVc2VyQ29tbWVudD5TY3JlZW5zaG90PC9leGlmOlVzZXJDb21tZW50PgogICAgICAgICA8ZXhpZjpQaXhlbFlEaW1lbnNpb24+NTk8L2V4aWY6UGl4ZWxZRGltZW5zaW9uPgogICAgICA8L3JkZjpEZXNjcmlwdGlvbj4KICAgPC9yZGY6UkRGPgo8L3g6eG1wbWV0YT4KkKybewAACvFJREFUeAHtXAtQVNcZ/neBpcEHnalAJxoLqIlWtIniqNBk0kaDxhgVDWjjs76tOFodNcHYtESjjFab2GgSnKlYoxKSkJrIo1pTDK/UdFQwWrGo0CQt0pmCjwwsLD3fhV3u3j3n7t3dyyLsnhm45/nfe/5vzjn/66yhlSXyp27NgcBu/fX3ycf/u76Gcr44RDduXZW+KDLsYZo+egF9P/Qhr3yhwb8SPeNzUWUepZ94iUtk1dObKSEmidumZ6VRT2K+RgsrcF/+q8Jpv1mwg/IrsoTtejX4QfSAkxdqSuhe0z1VClklB1Xb9Wj0g+gBF2vrv3Y6uu72LTpfXey0nycd/CB6wL1ewX00jS6v+VxTP3c7+UF0l3NsXNyQp+kBU4gHFPQZ6gfRAz5ChZjy2CwPKOgz1A+ih3ycF7+Whj44XJVKdPhQ1XZPG/0gespBNn5O3EpVKoPC1UFWHayh0bctNsVnicraJcc+fYnGxRHF/EgD2+y7PDqQjROk7/Xu1+mWG98DsaiQLB++R+aCAke2v76XAkaMoMDXdhENjHRsV6kJYQIOT2dMjluiMkqfJt8Bsf5/1LJpLTUXl6hyrqW8nCxJ08mUcUjzqrz2nwougJBc44ckqL5Pj0bfOBNzT1BTwpNOAbQytPXet9S0ZAFR9Q1rlerzaMmb3PZFT66h3sGh3DY9K3s8iJZfp1Ljpg0EYFxJ6N+y/RWnQ2AbPVdV6tAPEqs3jN94cc8FkW2flg0pZH4/24HBWiukrZedoaIEAGHkViYIMy/P2Kes7rRyzwSRAWien8wXXtpZGThyBJlSt1Lw2TIK/riATDNncpncksk3YIsAxDn40rTfemUbtX5wj/QnSiuQJ32yWRt6hVDQz5eRYamjbtcydxY1Xyy38sb2DP44305ahQtq+cFptnZrBgC++vwBGhwRY62yPe801tPFmlK6WP03m/P45q0qCgnuRWF9I6R+MQNGU3TEUIob7Jow1OOkU2cAmt6B1DnSxlx5xjh6DBEHRMo/SbR0la0rQFSmUdFjaf3kHQ4rEH2PFO+jc/8s4kqwUEvg6UC6/FWF9AwxpTFz3vM0PXahAz2pg+Jfz1qJx/9IjdvSFFNsK2IFqgGIXqKVaAzrR0Gni+zobjo2j658fYkA3rRR84in8MMFtfNPG7ng2RETFPr1CaMXn9vNXdnyIT0HRKZGQArlJS0AtmYcoKbX9/CGS3XB+98hin9C2K5sAIC/yl6trHa5DCNCmmCLthLrGSBWXJD0Op4aoQeAYJYxKpKCPmJno4aELXTd4TnCFQjp9SfDn6Hw0AcJjuWKmi+kVS0ijRX5u/lZwq21+5+JngDYUE+taS9TU75zcCzXb0gqi3HXGyJe2+qPFL0hBBD6I9QPpRHgg3MH6VDh72005BmcmUWV+UK9s3urGJ4AeKmcqSFJmgC0MhT2VghOxFQYtVR45ZSwed3k7Q4AonNi7GJ6YugE4biK6nPCtu4LIlPCYRrjbaGYbdDW3wilUJx/jXNmkaXqhpAxogYACR1UBKRaPA1WoVos6vKnUoWRAr2+Iw4F6Z4gQgpduVQIIJR4w+Spjjiw7dOycpGqAOM4yLEGW6s5cQoXyKray44DNNZgi01J2MLtPW7wU9x6VHYvENtNaSI1AhOSAEx+AVn7hO2TMd5cpE/kmeVWXduKtH8L3W28rajpKNbdru0oCHLxQybRxqnbCcIPEp4IQuapMFYS3UewYeefOXUjYRXwkmSJWbuBDBwAnakPPHpa6qRvYbsCJc+1dYfEKUptAkoec09NEnWR6tHurI+cQPdYiRn7qfFnSUIAjdGRkiLvAKBO26ecYcq8+e39dlURfQfYlZUFRIyrnZvK/lrK97eeyFZf82tpBEetKJkSEsiwhQkxod+178JCL5rWr6HWu+oR2vaD3CvBiC5//+x9P6ZvnUSGT340kebGp3AlVVe/4v4EkYFn+UOGqhcCEzWGh1HQqc/s5wzdb286NWW774KyJ+i8pLTmHC7aS9llmU4HwhoTOyieXohbrSq1OiOkz5mIgCNlintcWaNehhe9IJfMJ3KE2yaXAAON+rZ5z1uzjlAz294stW0GZW5/L1TOiF1EZy6dpP/eqVN9G4zfhZf/LP3FRo+jqaPmqgowImLurUQEG53Kp5bCTwlSmlpC4JGhT28KeGQYESLKfhjT0f3LCrJc+ZJaKq9qAk5aeVOeJcvVf9ikTJyHgaNiqbnwr10CniHkATKVnu+YU3sOcTdb3lvhdFtVDhzWP4Zmj1/hEpiugcjAM6dv08Rw5cd5Upbsn0lMwV63uY0MUzUaHx/rCUndxgZNnEjG3XwvvrtA4uMA5tpJ2zRts9ql03YFWyTi68YVGSEJPOZxN+Wd6QAQ7QaDrFfXZo2JScIPgHM4Y+knkrtK2EnQAN8ijOi4xOosaVuJbAXCQuKthFAJwwSmS/FcPzU3yZyyzC2Tmd7fr7YKle+CWnG0eL+qt0I5xlp2duNYE4gtyxdQc4ljRJf1JXo/TWvWkWHJig6ykDghPJ1mdsvPznpFbeh4OT8XEMXO4szjdqoFv6d9LcA8XZFDakZy+xFEkGL3zDsq3Fo1gdg48hElXZ8uS8KMC8HFPGZJYRvMZaUVTJyRO5L5aoumMxHhCf7UxgE9AAQleDPWP5NOby3+yOmtKvTHGcmL7UGbJhADp3A8AhjtYwlbqCn/U83h/VrYAzB3zj4sGbmd9S+u5NwfYYM0gWhYvIIwAV9OATExLp2BWDUXqtXvfcj5iWjxWWPny6sc8rUN/N8I0AQi7IKB29IJW4kvpqDEmRT47vuahBjEl24+Pl+KS92a/Quaw+yoWtQE8BWWHrXr49drr3LZrw1EDGX39nBTyJeAxFyDd+4i4yvbuczjVe7JfdEWP4p2mNbwY0VaPBdwCv+gXxSPrGqddhBBBkBm5fjE1ho4fpw0V+JFCKiwlHe5Bt0RfyoSTFTI2TVFhT9sV7YWXAMRo9jly0AWuoctpicmSOJYfQFvsUhxNldXErZSUcKK3JuXKmq21SMgWZSiwvmqnusgtr8BWwxcMD1F/ZBUh4WLKOiDT8jV1WdlOrZDa1iFtU7+hJqwO3eTvMouf+AvaXZleUHtwqrbIEovYGYxhLeb2OS761lpBQ+qg+GXzMCudC7LOakhj6BgtQTXU0pmIhVf64h1haE8LWcV5Z7/UDh0THSc0IGsyWIjpCxvYJ6F1oMHyJx1TBiFJu/e1XnpfsWylUSTnvUYOOVcVmfOoJq6m8pqt8tYhTCkKwOOrQT1A9FKkYFJWe+S+dgRp75G6xBvPiWjNTwPPOO6Th/SpmYs1AVI5XU5SLkIi4wI7W8LptIfRDkjEGaRfZya80526eqEpBnw04mdsurk05XnAeTu3M3096oyebVLeSWA2HYv1pRJYZH4Xbno8GGS87hzQZR/MgOUWOyn5fNSslyrpBZB6KF8iLv5gKhIMj42moxjx7MfYGNhIh6ec+5+B8a564KC9QbKv3wLhdHgTmMDlV47QxOGT5PysPR4D0QeJxBXU1NNxMI0Wm83UOtX/yLLN9+09bx7Rwg0hBFj9CCpH0I/jCz0w9CfhQoOGNip2yRvClrrJDMc+31U3KmobWib482669Jwq4IPPXDEQ2Ns2ySPNq6Z4yYVViLubyB1LYi8r/TXucwBz1QMl1/nH9AZHPCD2Blc9TJNP4heZnhnvM4PYmdw1cs0/SB6meGd8br/A5jXG7ddIuvdAAAAAElFTkSuQmCC;" vertex="1" parent="7CCz3uAto5SKICLuDHaF-1">
          <mxGeometry x="303.27" y="100" width="57.46" height="30" as="geometry" />
        </mxCell>
      </root>
    </mxGraphModel>
  </diagram>
</mxfile>
